<svg width="312" height="130" viewBox="0 0 312 130" fill="none" xmlns="http://www.w3.org/2000/svg">
<g style="mix-blend-mode:multiply">
<path fill-rule="evenodd" clip-rule="evenodd" d="M312 0L136.096 42.2846L135.715 43.961C136.647 43.159 137.792 42.6231 139.152 42.3534C139.951 42.2183 140.751 42.1498 141.551 42.1481C144.431 42.1417 146.753 43.0165 148.517 44.7726C150.228 46.5022 151.086 48.7803 151.092 51.6069C151.099 54.6736 150.038 57.1026 147.908 58.894C145.885 60.6052 143.394 61.4641 140.434 61.4706C137.901 61.4762 135.619 60.788 133.589 59.4058C131.56 58.0236 130.342 55.9863 129.936 53.2939L134.334 52.3241C134.524 54.1637 135.341 55.4952 136.783 56.3187C138.011 57.0093 139.252 57.3532 140.505 57.3504C141.892 57.3474 143.184 56.8912 144.382 55.9818C145.686 54.9923 146.337 53.5775 146.332 51.7375C146.329 49.9775 145.752 48.5921 144.603 47.5813C143.454 46.5972 142.08 46.1069 140.48 46.1105C138.267 46.1154 136.455 46.9194 135.045 48.5225L130.882 46.9318L131.691 43.3435L124.821 44.995L116.316 61.2041L111.036 61.2158L118.929 46.4114L97.4374 51.5775C97.441 51.719 97.4413 51.8618 97.4383 52.006C97.4449 55.0193 96.3702 57.3817 94.214 59.0931C92.191 60.751 89.6995 61.5832 86.7395 61.5897C83.6728 61.5965 81.1642 60.7221 79.2137 58.9664C78.3647 58.2192 77.6795 57.3812 77.1581 56.4524L0 75V130H312V0ZM81.7955 55.3376C81.9583 55.5264 82.1354 55.7071 82.3268 55.8795C83.4758 56.9436 84.9437 57.4737 86.7304 57.4697C88.917 57.4649 90.5819 56.6612 91.725 55.0587C92.2192 54.3895 92.5129 53.6162 92.606 52.7389L81.7955 55.3376ZM102.272 67.3153L102.268 65.2353C103.254 65.0464 104.066 64.5513 104.704 63.7499C105.316 63.0019 105.647 62.1078 105.698 61.0677C105.379 61.255 105.006 61.3492 104.579 61.3502C103.752 61.352 103.085 61.0735 102.577 60.5146C102.043 59.9825 101.774 59.3163 101.773 58.5164C101.771 57.663 102.076 56.9557 102.688 56.3943C103.247 55.8598 103.98 55.5915 104.886 55.5894C106.006 55.587 106.86 55.9717 107.449 56.7438C108.064 57.5157 108.373 58.4617 108.375 59.5817C108.433 61.5016 107.89 63.1961 106.746 64.6653C105.63 66.1612 104.138 67.0445 102.272 67.3153ZM164.654 61.0969L168.974 61.0873L168.941 46.2473L175.174 61.0735L178.454 61.0663L184.501 46.0928L184.534 61.0528L188.894 61.0431L188.85 41.1631L182.53 41.1772L176.801 55.4699L170.89 41.203L164.61 41.2169L164.654 61.0969ZM202.015 45.134L201.033 53.2162C200.823 55.0033 200.413 56.4842 199.803 57.6589C199.404 58.4064 198.926 59.0208 198.367 59.5021C197.089 60.6516 195.304 61.2289 193.011 61.2339L192.891 61.2343L192.882 57.2343C194.242 57.2312 195.201 56.7224 195.758 55.7079C196.237 54.9335 196.554 53.9061 196.711 52.6257L198.046 41.1428L213.206 41.1091L213.25 60.9891L208.81 60.9989L208.775 45.119L202.015 45.134ZM223.625 60.9661L223.607 52.8461L232.607 52.8261L232.625 60.9461L237.065 60.9362L237.021 41.0563L232.581 41.0661L232.598 48.9461L223.598 48.9661L223.581 41.0861L219.141 41.0959L219.185 60.9759L223.625 60.9661ZM128.952 90.2809H123V92.7448H121.256V88.7129H121.288C121.832 88.7129 122.253 88.4355 122.552 87.8809C122.861 87.3262 123.053 86.7235 123.128 86.0728L123.576 82.3289H129.688V88.6808H130.696V92.7448H128.952V90.2809ZM125.16 83.9289L124.856 86.2328C124.813 86.7129 124.685 87.1768 124.472 87.6248C124.291 88.0622 124.029 88.4142 123.688 88.6808H127.896V83.9289H125.16ZM132.182 84.1848C131.798 84.8249 131.605 85.5288 131.605 86.2968C131.605 87.0542 131.798 87.7528 132.182 88.3929C132.587 89.0542 133.099 89.5502 133.717 89.8809C134.379 90.2435 135.077 90.4249 135.814 90.4249C136.955 90.4462 137.941 90.0462 138.773 89.2249C139.616 88.3929 140.027 87.4062 140.005 86.2649C140.005 85.5182 139.819 84.8195 139.445 84.1689C139.061 83.5395 138.549 83.0489 137.91 82.6969C137.27 82.3449 136.576 82.1689 135.829 82.1689C135.061 82.1689 134.357 82.3449 133.717 82.6969C133.099 83.0275 132.587 83.5235 132.182 84.1848ZM134.102 88.0569C133.654 87.5555 133.43 86.9582 133.43 86.2649C133.43 85.5502 133.648 84.9582 134.085 84.4889C134.533 84.0089 135.109 83.7689 135.814 83.7689C136.528 83.7689 137.099 84.0142 137.525 84.5049C137.973 84.9849 138.198 85.5822 138.198 86.2968C138.198 86.9902 137.979 87.5822 137.542 88.0728C137.094 88.5635 136.523 88.8089 135.829 88.8089C135.126 88.8089 134.549 88.5582 134.102 88.0569ZM144.342 83.9289L143.942 87.1609C143.857 87.8755 143.692 88.4675 143.446 88.9369C143.286 89.2355 143.094 89.4809 142.87 89.6729C142.358 90.1315 141.644 90.3609 140.726 90.3609H140.678V88.7609C141.222 88.7609 141.606 88.5582 141.83 88.1529C142.022 87.8435 142.15 87.4329 142.214 86.9209L142.758 82.3289H148.822V90.2809H147.046V83.9289H144.342ZM153.692 87.1609L154.092 83.9289H156.796V90.2809H158.572V82.3289H152.508L151.964 86.9209C151.9 87.4329 151.772 87.8435 151.58 88.1529C151.356 88.5582 150.972 88.7609 150.428 88.7609V90.3609H150.476C151.394 90.3609 152.108 90.1315 152.62 89.6729C152.844 89.4809 153.036 89.2355 153.196 88.9369C153.442 88.4675 153.607 87.8755 153.692 87.1609ZM163.138 90.4249C162.36 90.4249 161.72 90.2009 161.218 89.7529C160.717 89.3155 160.466 88.7555 160.466 88.0728V87.9929C160.477 86.9795 160.989 86.2755 162.002 85.8809C162.546 85.6675 163.133 85.5609 163.762 85.5609H164.754C165.245 85.5609 165.49 85.3369 165.49 84.8889C165.49 84.5475 165.357 84.2595 165.09 84.0248C164.802 83.7902 164.413 83.6729 163.922 83.6729C163.453 83.6729 163.064 83.7955 162.754 84.0409C162.445 84.2755 162.258 84.5955 162.194 85.0009L160.578 84.6328C160.632 84.2595 160.813 83.8595 161.122 83.4329C161.453 83.0062 161.869 82.6862 162.37 82.4729C162.808 82.2702 163.346 82.1689 163.986 82.1689C165.48 82.1689 166.472 82.7128 166.962 83.8008C167.144 84.1955 167.234 84.6649 167.234 85.2089V89.0009C167.234 89.5342 167.25 89.9608 167.282 90.2809H165.554C165.501 90.0355 165.474 89.6729 165.474 89.1928C165.208 89.6302 164.866 89.9449 164.45 90.1368C164.024 90.3288 163.586 90.4249 163.138 90.4249ZM165.474 86.8089H163.762C163.389 86.8089 163.042 86.9049 162.722 87.0969C162.402 87.2995 162.242 87.5715 162.242 87.9128C162.242 88.2435 162.36 88.5102 162.594 88.7129C162.829 88.9048 163.133 89.0009 163.506 89.0009C164.114 89.0009 164.594 88.8249 164.946 88.4729C165.298 88.1209 165.474 87.6515 165.474 87.0648V86.8089ZM177.333 88.2968C177.653 87.6782 177.813 87.0062 177.813 86.2809C177.813 85.2462 177.472 84.3129 176.789 83.4809C176.053 82.6062 175.093 82.1689 173.909 82.1689C173.504 82.1689 173.056 82.2649 172.565 82.4568C172 82.6702 171.557 83.0382 171.237 83.5609V82.3289H169.509V94.2009H171.285V89.1129C171.477 89.4222 171.749 89.6782 172.101 89.8809C172.72 90.2328 173.306 90.4088 173.861 90.4088C174.597 90.4088 175.285 90.2115 175.925 89.8169C176.522 89.4435 176.992 88.9369 177.333 88.2968ZM171.253 86.2968C171.253 85.6035 171.477 85.0062 171.925 84.5049C172.373 84.0248 172.944 83.7849 173.637 83.7849C174.341 83.7849 174.917 84.0248 175.365 84.5049C175.802 84.9849 176.021 85.5822 176.021 86.2968C176.021 87.0009 175.802 87.5928 175.365 88.0728C174.917 88.5529 174.341 88.7928 173.637 88.7928C172.944 88.7928 172.373 88.5529 171.925 88.0728C171.477 87.5822 171.253 86.9902 171.253 86.2968ZM179.105 86.2968C179.105 85.5288 179.298 84.8249 179.682 84.1848C180.087 83.5235 180.599 83.0275 181.217 82.6969C181.857 82.3449 182.561 82.1689 183.329 82.1689C184.076 82.1689 184.77 82.3449 185.41 82.6969C186.049 83.0489 186.562 83.5395 186.945 84.1689C187.319 84.8195 187.505 85.5182 187.505 86.2649C187.527 87.4062 187.116 88.3929 186.273 89.2249C185.441 90.0462 184.455 90.4462 183.314 90.4249C182.577 90.4249 181.879 90.2435 181.217 89.8809C180.599 89.5502 180.087 89.0542 179.682 88.3929C179.298 87.7528 179.105 87.0542 179.105 86.2968ZM180.93 86.2649C180.93 86.9582 181.154 87.5555 181.602 88.0569C182.049 88.5582 182.626 88.8089 183.329 88.8089C184.023 88.8089 184.594 88.5635 185.042 88.0728C185.479 87.5822 185.698 86.9902 185.698 86.2968C185.698 85.5822 185.473 84.9849 185.025 84.5049C184.599 84.0142 184.028 83.7689 183.314 83.7689C182.609 83.7689 182.034 84.0089 181.586 84.4889C181.148 84.9582 180.93 85.5502 180.93 86.2649ZM193.561 82.3289H189.337V90.2809H193.625C194.382 90.2809 195.049 90.1208 195.625 89.8008C196.233 89.4489 196.537 88.8889 196.537 88.1208C196.537 87.6089 196.382 87.1662 196.073 86.7928C195.753 86.4302 195.369 86.2062 194.921 86.1208C195.774 85.7475 196.201 85.1449 196.201 84.3129C196.201 83.6835 195.956 83.1928 195.465 82.8409C194.964 82.4995 194.329 82.3289 193.561 82.3289ZM193.177 85.5768H191.097V83.7529H193.209C193.572 83.7529 193.854 83.8382 194.057 84.0089C194.27 84.1689 194.377 84.3768 194.377 84.6328C194.377 84.9102 194.27 85.1395 194.057 85.3209C193.854 85.4915 193.561 85.5768 193.177 85.5768ZM193.369 88.8249H191.097V86.8729H193.305C193.721 86.8729 194.057 86.9529 194.313 87.1129C194.58 87.2729 194.713 87.5022 194.713 87.8008C194.713 88.1315 194.596 88.3875 194.361 88.5688C194.126 88.7395 193.796 88.8249 193.369 88.8249Z" fill="#EEEEEE"/>
</g>
</svg>
