<svg width="312" height="130" viewBox="0 0 312 130" fill="none" xmlns="http://www.w3.org/2000/svg">
<g style="mix-blend-mode:multiply">
<path fill-rule="evenodd" clip-rule="evenodd" d="M312 0L132.186 43.2246C133.892 43.6092 135.341 44.3976 136.534 45.5899C138.24 47.3233 139.094 49.6033 139.094 52.4299C139.094 55.4966 138.027 57.9233 135.894 59.7099C133.867 61.4166 131.374 62.27 128.414 62.27C125.88 62.27 123.6 61.5766 121.574 60.1899C119.547 58.8033 118.334 56.7633 117.934 54.0699L122.334 53.1099C122.52 54.95 123.334 56.2833 124.774 57.1099C126 57.8033 127.24 58.1499 128.494 58.1499C129.88 58.1499 131.174 57.6966 132.374 56.7899C133.68 55.8033 134.334 54.39 134.334 52.5499C134.334 50.7899 133.76 49.4033 132.614 48.39C131.467 47.4033 130.094 46.9099 128.494 46.9099C126.28 46.9099 124.467 47.7099 123.054 49.3099L118.894 47.71L119.205 46.3451L111.258 48.2554C110.548 48.963 109.718 49.5945 108.768 50.1499L103.448 53.27C103.288 53.3499 103.088 53.4699 102.848 53.6299C102.635 53.7899 102.488 53.8966 102.408 53.95C101.928 54.2966 101.541 54.5899 101.248 54.83C100.261 55.6566 99.6212 56.6433 99.3279 57.7899H114.488V61.95H93.6479L93.6079 60.7099C93.5845 56.9725 95.3618 53.808 98.9396 51.2164L0 75V130H312V0ZM159.874 54.1499L160.874 46.0699H167.634V61.95H172.074V42.0699H156.914L155.554 53.5499C155.394 54.83 155.074 55.8566 154.594 56.6299C154.034 57.6433 153.074 58.1499 151.714 58.1499V62.1499H151.834C154.127 62.1499 155.914 61.5766 157.194 60.4299C157.754 59.9499 158.234 59.3366 158.634 58.5899C159.247 57.4166 159.661 55.9366 159.874 54.1499ZM196.329 53.3099H181.209C181.236 54.7499 181.849 55.9899 183.049 57.0299C184.249 58.0433 185.582 58.5366 187.049 58.5099C189.822 58.5099 191.582 57.3899 192.329 55.1499L196.049 56.3099C195.702 57.5099 195.062 58.5766 194.129 59.5099C193.222 60.4433 192.156 61.1499 190.929 61.6299C189.649 62.0833 188.369 62.3099 187.089 62.3099C184.209 62.3633 181.742 61.3766 179.689 59.3499C177.636 57.3233 176.636 54.8699 176.689 51.9899C176.689 50.1233 177.116 48.4033 177.969 46.83C178.849 45.2033 180.049 43.9499 181.569 43.0699C183.116 42.1366 184.822 41.6699 186.689 41.6699C189.729 41.6699 192.102 42.6166 193.809 44.5099C195.542 46.4033 196.409 48.8833 196.409 51.95C196.409 52.3233 196.382 52.7766 196.329 53.3099ZM186.729 45.4699C185.316 45.4699 184.142 45.8833 183.209 46.71C182.222 47.5099 181.636 48.5899 181.449 49.95H191.889C191.809 48.6166 191.289 47.5233 190.329 46.6699C189.316 45.8699 188.116 45.4699 186.729 45.4699ZM204.281 46.0699V61.95H208.721V46.0699H215.241V42.0699H197.801V46.0699H204.281ZM123.939 87.9435V91.1915H122.163V83.2395H123.939V86.3915H127.539V83.2395H129.315V91.1915H127.539V87.9435H123.939ZM131.951 90.6635C132.452 91.1115 133.092 91.3355 133.871 91.3355C134.319 91.3355 134.756 91.2395 135.183 91.0475C135.599 90.8556 135.94 90.5409 136.207 90.1035C136.207 90.5836 136.233 90.9462 136.287 91.1915H138.015C137.983 90.8715 137.967 90.4449 137.967 89.9115V86.1195C137.967 85.5755 137.876 85.1062 137.695 84.7115C137.204 83.6235 136.212 83.0795 134.719 83.0795C134.079 83.0795 133.54 83.1809 133.103 83.3835C132.601 83.5969 132.185 83.9169 131.855 84.3435C131.545 84.7702 131.364 85.1702 131.311 85.5435L132.927 85.9115C132.991 85.5062 133.177 85.1862 133.487 84.9515C133.796 84.7062 134.185 84.5835 134.655 84.5835C135.145 84.5835 135.535 84.7009 135.823 84.9355C136.089 85.1702 136.223 85.4582 136.223 85.7995C136.223 86.2475 135.977 86.4715 135.487 86.4715H134.495C133.865 86.4715 133.279 86.5782 132.735 86.7915C131.721 87.1862 131.209 87.8902 131.199 88.9035V88.9836C131.199 89.6662 131.449 90.2262 131.951 90.6635ZM134.495 87.7195H136.207V87.9755C136.207 88.5622 136.031 89.0316 135.679 89.3835C135.327 89.7355 134.847 89.9115 134.239 89.9115C133.865 89.9115 133.561 89.8155 133.327 89.6235C133.092 89.4209 132.975 89.1542 132.975 88.8235C132.975 88.4822 133.135 88.2102 133.455 88.0075C133.775 87.8156 134.121 87.7195 134.495 87.7195ZM152.483 87.1915C152.483 87.9169 152.323 88.5889 152.003 89.2076C151.661 89.8476 151.192 90.3542 150.595 90.7275C149.955 91.1222 149.267 91.3195 148.531 91.3195C147.976 91.3195 147.389 91.1435 146.771 90.7915C146.419 90.5889 146.147 90.3329 145.955 90.0235V95.1115H144.179V83.2395H145.907V84.4715C146.227 83.9489 146.669 83.5809 147.235 83.3676C147.725 83.1756 148.173 83.0795 148.579 83.0795C149.763 83.0795 150.723 83.5169 151.459 84.3915C152.141 85.2235 152.483 86.1569 152.483 87.1915ZM146.595 85.4155C146.147 85.9169 145.923 86.5142 145.923 87.2076C145.923 87.9009 146.147 88.4929 146.595 88.9836C147.043 89.4636 147.613 89.7036 148.307 89.7036C149.011 89.7036 149.587 89.4636 150.035 88.9836C150.472 88.5035 150.691 87.9116 150.691 87.2076C150.691 86.4929 150.472 85.8955 150.035 85.4155C149.587 84.9355 149.011 84.6955 148.307 84.6955C147.613 84.6955 147.043 84.9355 146.595 85.4155ZM160.623 90.4395C161.167 89.9276 161.439 89.2662 161.439 88.4555C161.439 87.8689 161.29 87.3782 160.991 86.9836C160.447 86.2369 159.508 85.8635 158.175 85.8635H156.095V83.2395H154.319V91.1915H158.319C159.322 91.1915 160.09 90.9409 160.623 90.4395ZM159.215 87.5595C159.503 87.7622 159.647 88.0555 159.647 88.4395C159.647 89.2822 159.124 89.7036 158.079 89.7036H156.095V87.2395H158.047C158.538 87.2395 158.927 87.3462 159.215 87.5595ZM164.847 91.1915V83.2395H163.071V91.1915H164.847ZM168.986 87.9435V91.1915H167.21V83.2395H168.986V86.3915H172.586V83.2395H174.362V91.1915H172.586V87.9435H168.986ZM176.725 91.1915H178.501V87.5115H178.581L181.941 91.1915H184.341L180.453 87.0475L184.085 83.2395H181.733L178.581 86.5835H178.501V83.2395H176.725V91.1915ZM191.772 87.7355H185.724C185.735 88.3115 185.98 88.8076 186.46 89.2235C186.94 89.6289 187.473 89.8262 188.06 89.8156C189.169 89.8156 189.873 89.3675 190.172 88.4715L191.66 88.9355C191.521 89.4156 191.265 89.8422 190.892 90.2155C190.529 90.5889 190.103 90.8716 189.612 91.0635C189.1 91.2449 188.588 91.3355 188.076 91.3355C186.924 91.3569 185.937 90.9622 185.116 90.1516C184.295 89.3409 183.895 88.3596 183.916 87.2076C183.916 86.4609 184.087 85.7729 184.428 85.1435C184.78 84.4929 185.26 83.9915 185.868 83.6395C186.487 83.2662 187.169 83.0795 187.916 83.0795C189.132 83.0795 190.081 83.4582 190.764 84.2155C191.457 84.9729 191.804 85.9649 191.804 87.1915C191.804 87.3409 191.793 87.5222 191.772 87.7355ZM187.932 84.5995C187.367 84.5995 186.897 84.7649 186.524 85.0956C186.129 85.4156 185.895 85.8475 185.82 86.3915H189.996C189.964 85.8582 189.756 85.4209 189.372 85.0795C188.967 84.7595 188.487 84.5995 187.932 84.5995Z" fill="#EEEEEE"/>
</g>
</svg>
