<svg width="312" height="130" viewBox="0 0 312 130" fill="none" xmlns="http://www.w3.org/2000/svg">
<g style="mix-blend-mode:multiply">
<path fill-rule="evenodd" clip-rule="evenodd" d="M312 0L171.408 33.7961C173.256 35.1687 174.667 36.9414 175.642 39.1142C176.633 41.3253 177.132 43.8442 177.138 46.6709C177.144 49.4709 176.657 51.992 175.675 54.2342C174.64 56.5565 173.177 58.3599 171.287 59.6441C169.396 61.0084 167.264 61.6932 164.891 61.6986C162.491 61.704 160.356 61.0422 158.487 59.7131C156.59 58.3573 155.146 56.5739 154.155 54.3629C153.163 52.1251 152.665 49.5929 152.658 46.7662C152.651 43.294 153.395 40.2941 154.892 37.7663L147.375 39.5734C148.253 41.6881 148.695 44.0754 148.701 46.7352C148.707 49.5352 148.219 52.0562 147.237 54.2985C146.202 56.6208 144.74 58.4241 142.849 59.7084C140.959 61.0727 138.827 61.7575 136.454 61.7629C134.054 61.7683 131.919 61.1064 130.049 59.7773C128.153 58.4216 126.709 56.6382 125.718 54.4271C124.726 52.1894 124.227 49.6572 124.221 46.8305C124.22 46.2487 124.24 45.6802 124.281 45.1249L110.364 48.4702C110.211 50.6202 109.741 52.5918 108.956 54.385C107.921 56.7074 106.458 58.5107 104.568 59.795C102.678 61.1592 100.546 61.8441 98.1724 61.8494C95.7724 61.8548 93.6376 61.193 91.7681 59.8639C89.8718 58.5081 88.4279 56.7248 87.4364 54.5137C87.3658 54.3542 87.2976 54.1932 87.2319 54.0308L81.4571 55.419C80.9531 56.9895 80.0297 58.3077 78.687 59.3734C76.6639 61.0313 74.1724 61.8636 71.2124 61.8704C68.3542 61.8768 65.9808 61.1178 64.0922 59.5932L0 75V130H312V0ZM71.8748 57.7224C72.6089 57.6614 73.2778 57.5006 73.8816 57.24L71.8748 57.7224ZM91.8559 52.9193C92.1143 53.47 92.4144 53.9974 92.7564 54.5016C94.201 56.605 96.0299 57.6409 98.2432 57.6093C99.7365 57.6059 101.055 57.1095 102.2 56.1203C103.318 55.1844 104.182 53.9025 104.792 52.2744C105.098 51.428 105.328 50.5513 105.479 49.6445L91.8559 52.9193ZM129.135 43.958C129.003 44.8352 128.939 45.7758 128.941 46.7798C128.894 49.7399 129.593 52.285 131.038 54.4151C132.482 56.5185 134.311 57.5544 136.524 57.5227C138.018 57.5193 139.337 57.023 140.481 56.0338C141.599 55.0979 142.463 53.8159 143.073 52.1879C143.682 50.5065 143.985 48.7058 143.981 46.7858C143.976 44.4029 143.577 42.3666 142.784 40.6768L129.135 43.958ZM168.838 37.4496C167.609 36.4657 166.275 35.9754 164.835 35.9787C163.368 35.982 162.049 36.4649 160.878 37.4276C158.536 39.4062 157.369 42.5022 157.378 46.7155C157.331 49.6757 158.03 52.2207 159.475 54.3508C160.92 56.4542 162.748 57.4901 164.962 57.4584C166.455 57.455 167.774 56.9587 168.919 55.9695C170.036 55.0336 170.9 53.7516 171.51 52.1236C172.12 50.4422 172.423 48.6415 172.418 46.7216C172.409 42.5882 171.216 39.4976 168.838 37.4496ZM193.328 61.6343C195.702 61.6289 197.834 60.9441 199.724 59.5798C201.615 58.2956 203.077 56.4922 204.112 54.1699C205.094 51.9277 205.582 49.4066 205.576 46.6066C205.57 43.7799 205.071 41.261 204.079 39.0499C203.088 36.8388 201.644 35.0421 199.748 33.6597C197.878 32.3573 195.743 31.7088 193.343 31.7142C189.69 31.7225 186.72 33.1825 184.433 36.0944C182.199 38.9261 181.087 42.4619 181.096 46.7019C181.102 49.5286 181.601 52.0608 182.592 54.2986C183.584 56.5096 185.028 58.2931 186.924 59.6488C188.794 60.9779 190.928 61.6397 193.328 61.6343ZM193.272 35.9144C194.712 35.9111 196.047 36.4014 197.276 37.3853C199.653 39.4333 200.847 42.5239 200.856 46.6573C200.86 48.5772 200.557 50.3779 199.948 52.0593C199.338 53.6874 198.474 54.9693 197.356 55.9052C196.211 56.8944 194.893 57.3907 193.399 57.3941C191.186 57.4258 189.357 56.3899 187.912 54.2865C186.468 52.1565 185.769 49.6114 185.816 46.6512C185.807 42.4379 186.973 39.3419 189.316 37.3633C190.487 36.4007 191.806 35.9177 193.272 35.9144ZM224.766 41.3232L224.8 57.2032L232.44 57.1859L232.405 41.3059L236.805 41.296L236.84 57.1759L244.52 57.1586L244.485 41.2786L248.925 41.2686L248.969 61.1485L220.369 61.2132L220.326 41.3333L224.766 41.3232ZM259.145 45.2455L259.18 61.1255L263.62 61.1154L263.585 45.2355L270.105 45.2207L270.097 41.2207L252.657 41.2601L252.665 45.2601L259.145 45.2455ZM106.939 90.5256H105.163V82.5736H106.939V85.9176H107.019L110.171 82.5736H112.523L108.891 86.3816L112.779 90.5256H110.379L107.019 86.8456H106.939V90.5256ZM113.701 89.9976C114.202 90.4456 114.842 90.6696 115.621 90.6696C116.069 90.6696 116.506 90.5736 116.933 90.3816C117.349 90.1896 117.69 89.875 117.957 89.4376C117.957 89.9176 117.984 90.2803 118.037 90.5256H119.765C119.733 90.2056 119.717 89.7789 119.717 89.2456V85.4536C119.717 84.9096 119.626 84.4402 119.445 84.0456C118.954 82.9576 117.962 82.4136 116.469 82.4136C115.829 82.4136 115.29 82.515 114.853 82.7176C114.352 82.931 113.936 83.2509 113.605 83.6776C113.296 84.1043 113.114 84.5043 113.061 84.8776L114.677 85.2456C114.741 84.8403 114.928 84.5203 115.237 84.2856C115.546 84.0403 115.936 83.9176 116.405 83.9176C116.896 83.9176 117.285 84.0349 117.573 84.2696C117.84 84.5043 117.973 84.7923 117.973 85.1336C117.973 85.5816 117.728 85.8056 117.237 85.8056H116.245C115.616 85.8056 115.029 85.9123 114.485 86.1256C113.472 86.5203 112.96 87.2243 112.949 88.2376V88.3176C112.949 89.0003 113.2 89.5603 113.701 89.9976ZM116.245 87.0536H117.957V87.3096C117.957 87.8963 117.781 88.3656 117.429 88.7176C117.077 89.0696 116.597 89.2456 115.989 89.2456C115.616 89.2456 115.312 89.1496 115.077 88.9576C114.842 88.7549 114.725 88.4883 114.725 88.1576C114.725 87.8163 114.885 87.5443 115.205 87.3416C115.525 87.1496 115.872 87.0536 116.245 87.0536ZM123.453 90.5256V84.1736H120.861V82.5736H127.837V84.1736H125.229V90.5256H123.453ZM128.375 82.5736L131.911 89.6296L129.735 94.4456H131.623L137.079 82.5736H135.159L132.871 87.7896L130.391 82.5736H128.375ZM140.22 82.5736V88.9256H143.276V82.5736H145.036V88.9256H148.108V82.5736H149.884V90.5256H138.444V82.5736H140.22ZM153.537 87.0696H159.585C159.606 86.8563 159.617 86.6749 159.617 86.5256C159.617 85.299 159.27 84.3069 158.577 83.5496C157.894 82.7923 156.945 82.4136 155.729 82.4136C154.982 82.4136 154.3 82.6003 153.681 82.9736C153.073 83.3256 152.593 83.8269 152.241 84.4776C151.9 85.1069 151.729 85.7949 151.729 86.5416C151.708 87.6936 152.108 88.6749 152.929 89.4856C153.75 90.2963 154.737 90.6909 155.889 90.6696C156.401 90.6696 156.913 90.5789 157.425 90.3976C157.916 90.2056 158.342 89.9229 158.705 89.5496C159.078 89.1763 159.334 88.7496 159.473 88.2696L157.985 87.8056C157.686 88.7016 156.982 89.1496 155.873 89.1496C155.286 89.1603 154.753 88.963 154.273 88.5576C153.793 88.1416 153.548 87.6456 153.537 87.0696ZM154.337 84.4296C154.71 84.0989 155.18 83.9336 155.745 83.9336C156.3 83.9336 156.78 84.0936 157.185 84.4136C157.569 84.7549 157.777 85.1923 157.809 85.7256H153.633C153.708 85.1816 153.942 84.7496 154.337 84.4296ZM163.205 90.5256H161.429V82.5736H163.205V85.9176H163.285L166.437 82.5736H168.789L165.157 86.3816L169.045 90.5256H166.645L163.285 86.8456H163.205V90.5256ZM178.325 82.5736H174.101V90.5256H178.389C179.146 90.5256 179.813 90.3656 180.389 90.0456C180.997 89.6936 181.301 89.1336 181.301 88.3656C181.301 87.8536 181.146 87.4109 180.837 87.0376C180.517 86.6749 180.133 86.4509 179.685 86.3656C180.538 85.9923 180.965 85.3896 180.965 84.5576C180.965 83.9283 180.719 83.4376 180.229 83.0856C179.727 82.7443 179.093 82.5736 178.325 82.5736ZM177.941 85.8216H175.861V83.9976H177.973C178.335 83.9976 178.618 84.0829 178.821 84.2536C179.034 84.4136 179.141 84.6216 179.141 84.8776C179.141 85.1549 179.034 85.3843 178.821 85.5656C178.618 85.7363 178.325 85.8216 177.941 85.8216ZM178.133 89.0696H175.861V87.1176H178.069C178.485 87.1176 178.821 87.1976 179.077 87.3576C179.343 87.5176 179.477 87.7469 179.477 88.0456C179.477 88.3763 179.359 88.6323 179.125 88.8136C178.89 88.9843 178.559 89.0696 178.133 89.0696ZM187.116 90.5256V82.5736H192.716V84.1736H188.892V90.5256H187.116ZM193.758 84.4296C193.374 85.0696 193.182 85.7736 193.182 86.5416C193.182 87.2989 193.374 87.9976 193.758 88.6376C194.163 89.299 194.675 89.795 195.294 90.1256C195.955 90.4883 196.654 90.6696 197.39 90.6696C198.531 90.6909 199.518 90.2909 200.35 89.4696C201.192 88.6376 201.603 87.6509 201.582 86.5096C201.582 85.7629 201.395 85.0643 201.022 84.4136C200.638 83.7843 200.126 83.2936 199.486 82.9416C198.846 82.5896 198.152 82.4136 197.406 82.4136C196.638 82.4136 195.934 82.5896 195.294 82.9416C194.675 83.2723 194.163 83.7682 193.758 84.4296ZM195.678 88.3016C195.23 87.8003 195.006 87.2029 195.006 86.5096C195.006 85.795 195.224 85.2029 195.662 84.7336C196.11 84.2536 196.686 84.0136 197.39 84.0136C198.104 84.0136 198.675 84.2589 199.102 84.7496C199.55 85.2296 199.774 85.8269 199.774 86.5416C199.774 87.2349 199.555 87.8269 199.118 88.3176C198.67 88.8083 198.099 89.0536 197.406 89.0536C196.702 89.0536 196.126 88.8029 195.678 88.3016ZM209.763 90.5256H203.811V92.9896H202.067V88.9576H202.099C202.643 88.9576 203.064 88.6803 203.363 88.1256C203.672 87.571 203.864 86.9683 203.939 86.3176L204.387 82.5736H210.499V88.9256H211.507V92.9896H209.763V90.5256ZM205.971 84.1736L205.667 86.4776C205.624 86.9576 205.496 87.4216 205.283 87.8696C205.101 88.3069 204.84 88.6589 204.499 88.9256H208.707V84.1736H205.971Z" fill="#EEEEEE"/>
</g>
</svg>
