<svg width="312" height="130" fill="none" xmlns="http://www.w3.org/2000/svg"><path fill-rule="evenodd" clip-rule="evenodd" d="M312 0L132.186 43.225c1.706.384 3.155 1.173 4.348 2.365 1.706 1.733 2.56 4.013 2.56 6.84 0 3.067-1.067 5.493-3.2 7.28-2.027 1.707-4.52 2.56-7.48 2.56-2.534 0-4.814-.693-6.84-2.08-2.027-1.387-3.24-3.427-3.64-6.12l4.4-.96c.186 1.84 1 3.173 2.44 4 1.226.693 2.466 1.04 3.72 1.04 1.386 0 2.68-.453 3.88-1.36 1.306-.987 1.96-2.4 1.96-4.24 0-1.76-.574-3.147-1.72-4.16-1.147-.987-2.52-1.48-4.12-1.48-2.214 0-4.027.8-5.44 2.4l-4.16-1.6.311-1.365-7.947 1.91a12.29 12.29 0 01-2.49 1.895l-5.32 3.12c-.16.08-.36.2-.6.36-.213.16-.36.267-.44.32-.48.347-.867.64-1.16.88-.987.827-1.627 1.813-1.92 2.96h15.16v4.16h-20.84l-.04-1.24c-.023-3.738 1.754-6.902 5.332-9.494L0 75v55h312V0zM159.874 54.15l1-8.08h6.76v15.88h4.44V42.07h-15.16l-1.36 11.48c-.16 1.28-.48 2.307-.96 3.08-.56 1.013-1.52 1.52-2.88 1.52v4h.12c2.293 0 4.08-.573 5.36-1.72.56-.48 1.04-1.093 1.44-1.84.613-1.173 1.027-2.653 1.24-4.44zm36.455-.84h-15.12c.027 1.44.64 2.68 1.84 3.72 1.2 1.013 2.533 1.507 4 1.48 2.773 0 4.533-1.12 5.28-3.36l3.72 1.16c-.347 1.2-.987 2.267-1.92 3.2a8.958 8.958 0 01-3.2 2.12c-1.28.453-2.56.68-3.84.68-2.88.053-5.347-.933-7.4-2.96s-3.053-4.48-3-7.36c0-1.867.427-3.587 1.28-5.16.88-1.627 2.08-2.88 3.6-3.76 1.547-.933 3.253-1.4 5.12-1.4 3.04 0 5.413.947 7.12 2.84 1.733 1.893 2.6 4.373 2.6 7.44 0 .373-.027.827-.08 1.36zm-9.6-7.84c-1.413 0-2.587.413-3.52 1.24-.987.8-1.573 1.88-1.76 3.24h10.44c-.08-1.333-.6-2.427-1.56-3.28-1.013-.8-2.213-1.2-3.6-1.2zm17.552.6v15.88h4.44V46.07h6.52v-4h-17.44v4h6.48zm-80.342 41.873v3.249h-1.776V83.24h1.776v3.151h3.6V83.24h1.776v7.952h-1.776v-3.248h-3.6zm8.012 2.72c.501.449 1.141.672 1.92.672.448 0 .885-.095 1.312-.287.416-.192.757-.507 1.024-.945 0 .48.026.843.08 1.089h1.728c-.032-.32-.048-.747-.048-1.28v-3.793c0-.543-.091-1.013-.272-1.407-.491-1.088-1.483-1.633-2.976-1.633-.64 0-1.179.102-1.616.305a3.069 3.069 0 00-1.248.96c-.31.426-.491.826-.544 1.2l1.616.368c.064-.406.25-.726.56-.96.309-.246.698-.368 1.168-.368.49 0 .88.117 1.168.352.266.234.4.522.4.863 0 .448-.246.672-.736.672h-.992c-.63 0-1.216.107-1.76.32-1.014.395-1.526 1.1-1.536 2.112v.08c0 .683.25 1.243.752 1.68zm2.544-2.944h1.712v.257c0 .586-.176 1.056-.528 1.407-.352.353-.832.529-1.44.529-.374 0-.678-.097-.912-.288a1.004 1.004 0 01-.352-.8c0-.342.16-.614.48-.817.32-.191.666-.288 1.04-.288zm17.988-.527c0 .725-.16 1.397-.48 2.016a3.954 3.954 0 01-1.408 1.52 3.863 3.863 0 01-2.064.592c-.555 0-1.142-.176-1.76-.528a2.266 2.266 0 01-.816-.769v5.089h-1.776V83.24h1.728v1.232a2.59 2.59 0 011.328-1.104c.49-.192.938-.288 1.344-.288 1.184 0 2.144.437 2.88 1.311.682.832 1.024 1.766 1.024 2.8zm-5.888-1.776a2.599 2.599 0 00-.672 1.792c0 .693.224 1.285.672 1.776.448.48 1.018.72 1.712.72.704 0 1.28-.24 1.728-.72.437-.48.656-1.072.656-1.776 0-.715-.219-1.313-.656-1.793-.448-.48-1.024-.72-1.728-.72-.694 0-1.264.24-1.712.72zm14.028 5.023c.544-.511.816-1.173.816-1.983 0-.587-.149-1.078-.448-1.472-.544-.747-1.483-1.12-2.816-1.12h-2.08V83.24h-1.776v7.952h4c1.003 0 1.771-.251 2.304-.752zm-1.408-2.88c.288.203.432.496.432.88 0 .843-.523 1.265-1.568 1.265h-1.984V87.24h1.952c.491 0 .88.106 1.168.32zm5.632 3.633V83.24h-1.776v7.952h1.776zm4.139-3.248v3.248h-1.776V83.24h1.776v3.151h3.6V83.24h1.776v7.952h-1.776v-3.248h-3.6zm7.739 3.248h1.776v-3.68h.08l3.36 3.68h2.4l-3.888-4.144 3.632-3.808h-2.352l-3.152 3.344h-.08V83.24h-1.776v7.952zm15.047-3.456h-6.048c.011.575.256 1.072.736 1.487.48.406 1.013.603 1.6.593 1.109 0 1.813-.448 2.112-1.344l1.488.464c-.139.48-.395.906-.768 1.28a3.581 3.581 0 01-1.28.848 4.573 4.573 0 01-1.536.272c-1.152.02-2.139-.374-2.96-1.184-.821-.811-1.221-1.792-1.2-2.944 0-.747.171-1.435.512-2.064a3.765 3.765 0 011.44-1.505 3.889 3.889 0 012.048-.56c1.216 0 2.165.38 2.848 1.137.693.757 1.04 1.749 1.04 2.976 0 .149-.011.33-.032.544zm-3.84-3.136c-.565 0-1.035.165-1.408.496-.395.32-.629.751-.704 1.295h4.176a1.832 1.832 0 00-.624-1.312c-.405-.32-.885-.48-1.44-.48z" fill="#EEE"/></svg>