<svg width="312" height="130" fill="none" xmlns="http://www.w3.org/2000/svg"><path fill-rule="evenodd" clip-rule="evenodd" d="M312 0L171.408 33.796c1.848 1.373 3.259 3.145 4.234 5.318.991 2.211 1.49 4.73 1.496 7.557.006 2.8-.481 5.321-1.463 7.563-1.035 2.322-2.498 4.126-4.388 5.41-1.891 1.364-4.023 2.05-6.396 2.055-2.4.005-4.535-.657-6.404-1.986-1.897-1.356-3.341-3.14-4.332-5.35-.992-2.238-1.49-4.77-1.497-7.597-.007-3.472.737-6.472 2.234-9l-7.517 1.807c.878 2.115 1.32 4.502 1.326 7.162.006 2.8-.482 5.321-1.464 7.563-1.035 2.323-2.497 4.126-4.388 5.41-1.89 1.365-4.022 2.05-6.395 2.055-2.4.005-4.535-.657-6.405-1.986-1.896-1.355-3.34-3.139-4.331-5.35-.992-2.238-1.491-4.77-1.497-7.596-.001-.582.019-1.15.06-1.706l-13.917 3.345c-.153 2.15-.623 4.122-1.408 5.915-1.035 2.322-2.498 4.126-4.388 5.41-1.89 1.364-4.022 2.05-6.396 2.054-2.4.006-4.534-.656-6.404-1.985-1.896-1.356-3.34-3.14-4.332-5.35-.07-.16-.138-.32-.204-.483l-5.775 1.388c-.504 1.57-1.427 2.889-2.77 3.954-2.023 1.658-4.515 2.49-7.475 2.497-2.858.007-5.231-.752-7.12-2.277L0 75v55h312V0zM71.875 57.722a6.361 6.361 0 002.007-.482l-2.007.482zm19.98-4.803c.26.551.56 1.078.901 1.583 1.445 2.103 3.274 3.139 5.487 3.107 1.494-.003 2.812-.5 3.957-1.489 1.118-.936 1.982-2.217 2.592-3.846.306-.846.536-1.723.687-2.63L91.856 52.92zm37.28-8.961a18.738 18.738 0 00-.194 2.822c-.047 2.96.652 5.505 2.097 7.635 1.444 2.104 3.273 3.14 5.486 3.108 1.494-.004 2.813-.5 3.957-1.49 1.118-.935 1.982-2.217 2.592-3.845.609-1.681.912-3.482.908-5.402-.005-2.383-.404-4.42-1.197-6.11l-13.649 3.282zm39.703-6.508c-1.229-.984-2.563-1.475-4.003-1.471-1.467.003-2.786.486-3.957 1.449-2.342 1.978-3.509 5.074-3.5 9.288-.047 2.96.652 5.505 2.097 7.635 1.445 2.103 3.273 3.14 5.487 3.107 1.493-.003 2.812-.5 3.957-1.489 1.117-.935 1.981-2.217 2.591-3.845.61-1.682.913-3.483.908-5.402-.009-4.134-1.202-7.224-3.58-9.272zm24.49 24.184c2.374-.005 4.506-.69 6.396-2.054 1.891-1.284 3.353-3.088 4.388-5.41.982-2.242 1.47-4.763 1.464-7.563-.006-2.827-.505-5.346-1.497-7.557-.991-2.211-2.435-4.008-4.331-5.39-1.87-1.303-4.005-1.951-6.405-1.946-3.653.009-6.623 1.468-8.91 4.38-2.234 2.832-3.346 6.368-3.337 10.608.006 2.827.505 5.359 1.496 7.597.992 2.21 2.436 3.994 4.332 5.35 1.87 1.329 4.004 1.99 6.404 1.985zm-.056-25.72c1.44-.003 2.775.487 4.004 1.471 2.377 2.048 3.571 5.139 3.58 9.272.004 1.92-.299 3.72-.908 5.402-.61 1.628-1.474 2.91-2.592 3.846-1.145.99-2.463 1.486-3.957 1.49-2.213.03-4.042-1.005-5.487-3.109-1.444-2.13-2.143-4.675-2.096-7.635-.009-4.213 1.157-7.31 3.5-9.288 1.171-.962 2.49-1.445 3.956-1.449zm31.494 5.41l.034 15.88 7.64-.018-.035-15.88 4.4-.01.035 15.88 7.68-.017-.035-15.88 4.44-.01.044 19.88-28.6.064-.043-19.88 4.44-.01zm34.379 3.922l.035 15.88 4.44-.01-.035-15.88 6.52-.015-.008-4-17.44.04.008 4 6.48-.016zm-152.206 45.28h-1.776v-7.952h1.776v3.344h.08l3.152-3.344h2.352l-3.632 3.808 3.888 4.144h-2.4l-3.36-3.68h-.08v3.68zm6.762-.528c.501.448 1.141.672 1.92.672.448 0 .885-.096 1.312-.288.416-.192.757-.507 1.024-.944 0 .48.027.842.08 1.088h1.728a13.48 13.48 0 01-.048-1.28v-3.792c0-.544-.091-1.014-.272-1.408-.491-1.088-1.483-1.632-2.976-1.632-.64 0-1.179.101-1.616.304a3.081 3.081 0 00-1.248.96c-.309.426-.491.826-.544 1.2l1.616.368c.064-.406.251-.726.56-.96.309-.246.699-.368 1.168-.368.491 0 .88.117 1.168.352.267.234.4.522.4.864 0 .448-.245.672-.736.672h-.992a4.78 4.78 0 00-1.76.32c-1.013.394-1.525 1.098-1.536 2.112v.08c0 .682.251 1.242.752 1.68zm2.544-2.944h1.712v.256c0 .586-.176 1.056-.528 1.408-.352.352-.832.528-1.44.528-.373 0-.677-.096-.912-.288a1.005 1.005 0 01-.352-.8c0-.342.16-.614.48-.816.32-.192.667-.288 1.04-.288zm7.208 3.472v-6.352h-2.592v-1.6h6.976v1.6h-2.608v6.352h-1.776zm4.922-7.952l3.536 7.056-2.176 4.816h1.888l5.456-11.872h-1.92l-2.288 5.216-2.48-5.216h-2.016zm11.845 0v6.352h3.056v-6.352h1.76v6.352h3.072v-6.352h1.776v7.952h-11.44v-7.952h1.776zm13.317 4.496h6.048a5.71 5.71 0 00.032-.544c0-1.227-.347-2.22-1.04-2.976-.683-.758-1.632-1.136-2.848-1.136-.747 0-1.429.186-2.048.56a3.764 3.764 0 00-1.44 1.504 4.263 4.263 0 00-.512 2.064c-.021 1.152.379 2.133 1.2 2.944.821.81 1.808 1.205 2.96 1.184.512 0 1.024-.091 1.536-.272a3.584 3.584 0 001.28-.848c.373-.374.629-.8.768-1.28l-1.488-.464c-.299.896-1.003 1.344-2.112 1.344-.587.01-1.12-.187-1.6-.592-.48-.416-.725-.912-.736-1.488zm.8-2.64c.373-.331.843-.496 1.408-.496.555 0 1.035.16 1.44.48.384.34.592.778.624 1.312h-4.176c.075-.544.309-.976.704-1.296zm8.868 6.096h-1.776v-7.952h1.776v3.344h.08l3.152-3.344h2.352l-3.632 3.808 3.888 4.144h-2.4l-3.36-3.68h-.08v3.68zm15.12-7.952h-4.224v7.952h4.288c.757 0 1.424-.16 2-.48.608-.352.912-.912.912-1.68 0-.512-.155-.955-.464-1.328a2.006 2.006 0 00-1.152-.672c.853-.374 1.28-.976 1.28-1.808 0-.63-.246-1.12-.736-1.472-.502-.342-1.136-.512-1.904-.512zm-.384 3.248h-2.08v-1.824h2.112c.362 0 .645.085.848.256.213.16.32.368.32.624a.865.865 0 01-.32.688c-.203.17-.496.256-.88.256zm.192 3.248h-2.272v-1.952h2.208c.416 0 .752.08 1.008.24.266.16.4.389.4.688 0 .33-.118.586-.352.768-.235.17-.566.256-.992.256zm8.983 1.456v-7.952h5.6v1.6h-3.824v6.352h-1.776zm6.642-6.096a4.028 4.028 0 00-.576 2.112 4 4 0 00.576 2.096c.405.661.917 1.157 1.536 1.488.661.362 1.36.544 2.096.544 1.141.02 2.128-.38 2.96-1.2.842-.832 1.253-1.82 1.232-2.96 0-.747-.187-1.446-.56-2.096a4.069 4.069 0 00-1.536-1.472 4.249 4.249 0 00-2.08-.528 4.31 4.31 0 00-2.112.528c-.619.33-1.131.826-1.536 1.488zm1.92 3.872a2.599 2.599 0 01-.672-1.792c0-.715.218-1.307.656-1.776.448-.48 1.024-.72 1.728-.72.714 0 1.285.245 1.712.736.448.48.672 1.077.672 1.792 0 .693-.219 1.285-.656 1.776-.448.49-1.019.736-1.712.736-.704 0-1.28-.251-1.728-.752zm14.085 2.224h-5.952v2.464h-1.744v-4.032h.032c.544 0 .965-.278 1.264-.832a4.807 4.807 0 00.576-1.808l.448-3.744h6.112v6.352h1.008v4.064h-1.744v-2.464zm-3.792-6.352l-.304 2.304c-.043.48-.171.944-.384 1.392-.182.437-.443.789-.784 1.056h4.208v-4.752h-2.736z" fill="#EEE"/></svg>