<svg width="312" height="130" fill="none" xmlns="http://www.w3.org/2000/svg"><path fill-rule="evenodd" clip-rule="evenodd" d="M312 0L136.096 42.285l-.381 1.676c.932-.802 2.077-1.338 3.437-1.608a14.555 14.555 0 012.399-.205c2.88-.006 5.202.868 6.966 2.625 1.711 1.73 2.569 4.007 2.575 6.834.007 3.067-1.054 5.496-3.184 7.287-2.023 1.711-4.514 2.57-7.474 2.577-2.533.005-4.815-.683-6.845-2.065-2.029-1.382-3.247-3.42-3.653-6.112l4.398-.97c.19 1.84 1.007 3.171 2.449 3.995 1.228.69 2.469 1.034 3.722 1.031 1.387-.003 2.679-.459 3.877-1.368 1.304-.99 1.955-2.404 1.95-4.245-.003-1.76-.58-3.145-1.729-4.156-1.149-.984-2.523-1.474-4.123-1.47-2.213.004-4.025.808-5.435 2.412l-4.163-1.591.809-3.589-6.87 1.652-8.505 16.21-5.28.01 7.893-14.804-21.492 5.166c.004.142.004.285.001.429.007 3.013-1.068 5.376-3.224 7.087-2.023 1.658-4.514 2.49-7.474 2.497-3.067.006-5.576-.868-7.526-2.624a9.604 9.604 0 01-2.056-2.514L0 75v55h312V0zM81.796 55.338c.162.188.34.37.53.541 1.15 1.065 2.618 1.595 4.404 1.59 2.187-.004 3.852-.808 4.995-2.41.494-.67.788-1.443.881-2.32l-10.81 2.599zm20.476 11.977l-.004-2.08c.986-.189 1.798-.684 2.436-1.485.612-.748.943-1.642.994-2.682a2.18 2.18 0 01-1.119.282c-.827.002-1.494-.276-2.002-.835-.534-.532-.803-1.199-.804-1.999-.002-.853.303-1.56.915-2.122.559-.534 1.292-.802 2.198-.805 1.12-.002 1.974.383 2.563 1.155.615.772.924 1.718.926 2.838.058 1.92-.485 3.614-1.629 5.083-1.116 1.496-2.608 2.38-4.474 2.65zm62.382-6.218l4.32-.01-.033-14.84 6.233 14.827 3.28-.008 6.047-14.973.033 14.96 4.36-.01-.044-19.88-6.32.014-5.729 14.293-5.911-14.267-6.28.014.044 19.88zm37.361-15.963l-.982 8.082c-.21 1.787-.62 3.268-1.23 4.443-.399.747-.877 1.362-1.436 1.843-1.278 1.15-3.063 1.727-5.356 1.732h-.12l-.009-4c1.36-.003 2.319-.512 2.876-1.526.479-.774.796-1.802.953-3.082l1.335-11.483 15.16-.034.044 19.88-4.44.01-.035-15.88-6.76.015zm21.61 15.832l-.018-8.12 9-.02.018 8.12 4.44-.01-.044-19.88-4.44.01.017 7.88-9 .02-.017-7.88-4.44.01.044 19.88 4.44-.01zm-94.673 29.315H123v2.464h-1.744v-4.032h.032c.544 0 .965-.277 1.264-.832a4.808 4.808 0 00.576-1.808l.448-3.744h6.112v6.352h1.008v4.064h-1.744V90.28zm-3.792-6.352l-.304 2.304c-.043.48-.171.944-.384 1.392-.181.437-.443.79-.784 1.056h4.208v-4.752h-2.736zm7.022.256a4.03 4.03 0 00-.577 2.112 4 4 0 00.577 2.096c.405.661.917 1.157 1.535 1.488a4.3 4.3 0 002.097.544c1.141.021 2.127-.379 2.959-1.2.843-.832 1.254-1.819 1.232-2.96 0-.747-.186-1.445-.56-2.096a4.073 4.073 0 00-1.535-1.472 4.25 4.25 0 00-2.081-.528 4.31 4.31 0 00-2.112.528c-.618.33-1.13.826-1.535 1.488zm1.92 3.872a2.599 2.599 0 01-.672-1.792c0-.715.218-1.307.655-1.776.448-.48 1.024-.72 1.729-.72.714 0 1.285.245 1.711.736.448.48.673 1.077.673 1.792 0 .693-.219 1.285-.656 1.776-.448.49-1.019.736-1.713.736-.703 0-1.28-.25-1.727-.752zm10.24-4.128l-.4 3.232c-.085.715-.25 1.306-.496 1.776-.16.299-.352.544-.576.736-.512.459-1.226.688-2.144.688h-.048v-1.6c.544 0 .928-.203 1.152-.608.192-.31.32-.72.384-1.232l.544-4.592h6.064v7.952h-1.776v-6.352h-2.704zm9.35 3.232l.4-3.232h2.704v6.352h1.776v-7.952h-6.064l-.544 4.592c-.064.512-.192.922-.384 1.232-.224.405-.608.608-1.152.608v1.6h.048c.918 0 1.632-.23 2.144-.688.224-.192.416-.438.576-.736.246-.47.411-1.061.496-1.776zm9.446 3.264c-.778 0-1.418-.224-1.92-.672-.501-.438-.752-.998-.752-1.68v-.08c.011-1.013.523-1.718 1.536-2.112a4.778 4.778 0 011.76-.32h.992c.491 0 .736-.224.736-.672 0-.341-.133-.63-.4-.864-.288-.235-.677-.352-1.168-.352-.469 0-.858.123-1.168.368a1.439 1.439 0 00-.56.96l-1.616-.368c.054-.373.235-.773.544-1.2a3.08 3.08 0 011.248-.96c.438-.203.976-.304 1.616-.304 1.494 0 2.486.544 2.976 1.632.182.394.272.864.272 1.408V89c0 .533.016.96.048 1.28h-1.728c-.053-.246-.08-.608-.08-1.088-.266.437-.608.752-1.024.944a3.164 3.164 0 01-1.312.288zm2.336-3.616h-1.712c-.373 0-.72.096-1.04.288-.32.203-.48.475-.48.816 0 .33.118.597.352.8.235.192.539.288.912.288.608 0 1.088-.176 1.44-.528.352-.352.528-.822.528-1.408v-.256zm11.859 1.488c.32-.619.48-1.29.48-2.016 0-1.035-.341-1.968-1.024-2.8-.736-.875-1.696-1.312-2.88-1.312-.405 0-.853.096-1.344.288a2.594 2.594 0 00-1.328 1.104v-1.232h-1.728V94.2h1.776v-5.088c.192.31.464.565.816.768.619.352 1.205.528 1.76.528.736 0 1.424-.198 2.064-.592a3.947 3.947 0 001.408-1.52zm-6.08-2c0-.694.224-1.29.672-1.792.448-.48 1.019-.72 1.712-.72.704 0 1.28.24 1.728.72.437.48.656 1.077.656 1.792 0 .704-.219 1.296-.656 1.776-.448.48-1.024.72-1.728.72-.693 0-1.264-.24-1.712-.72-.448-.49-.672-1.083-.672-1.776zm7.852 0c0-.768.193-1.472.577-2.112.405-.662.917-1.157 1.535-1.488a4.31 4.31 0 012.112-.528 4.25 4.25 0 012.081.528 4.066 4.066 0 011.535 1.472c.374.65.56 1.35.56 2.096.022 1.141-.389 2.128-1.232 2.96-.832.821-1.818 1.221-2.959 1.2a4.3 4.3 0 01-2.097-.544c-.618-.33-1.13-.827-1.535-1.488a4 4 0 01-.577-2.096zm1.825-.032c0 .693.224 1.29.672 1.792.447.501 1.024.752 1.727.752.694 0 1.265-.245 1.713-.736.437-.49.656-1.083.656-1.776 0-.715-.225-1.312-.673-1.792-.426-.49-.997-.736-1.711-.736-.705 0-1.28.24-1.728.72-.438.47-.656 1.061-.656 1.776zm12.631-3.936h-4.224v7.952h4.288c.757 0 1.424-.16 2-.48.608-.352.912-.912.912-1.68 0-.512-.155-.955-.464-1.328a2.007 2.007 0 00-1.152-.672c.853-.373 1.28-.976 1.28-1.808 0-.63-.245-1.12-.736-1.472-.501-.341-1.136-.512-1.904-.512zm-.384 3.248h-2.08v-1.824h2.112c.363 0 .645.085.848.256.213.16.32.368.32.624a.865.865 0 01-.32.688c-.203.17-.496.256-.88.256zm.192 3.248h-2.272v-1.952h2.208c.416 0 .752.08 1.008.24.267.16.4.39.4.688 0 .33-.117.587-.352.768-.235.17-.565.256-.992.256z" fill="#EEE"/></svg>